FILE "TownsOS V2.1 L51 (1995)(Fujitsu)(JP).bin" BINARY
REM SESSION 01
   TRACK 01 MODE1/2352
     INDEX 01 00:00:00
   TRACK 02 AUDIO
     INDEX 01 40:00:00
   TRACK 03 AUDIO
     INDEX 01 41:00:00
   TRACK 04 AUDIO
     INDEX 01 42:01:30
   TRACK 05 AUDIO
     INDEX 01 43:05:27
   TRACK 06 AUDIO
     INDEX 01 44:08:67
   TRACK 07 AUDIO
     INDEX 01 53:04:22
   TRACK 08 AUDIO
     INDEX 01 54:11:22
   TRACK 09 AUDIO
     INDEX 01 55:02:32
